<svg xmlns="http://www.w3.org/2000/svg" width="512" height="512" viewBox="0 0 388.833 388.833"><path d="M70.696 338.946v-11.374c108.949 2.394 306.495 31.727 313.679-121.52C390.36 87.524 266.445 58.192 161.687 62.98c-5.986-3.592-11.973-7.782-17.959-11.972-3.591-2.395-7.782-5.388-11.972-7.184-1.197-.598-2.394-1.197-4.19-1.197-.598 0-1.198 0-1.796.599-1.198 0-1.796.598-1.796 1.796v1.795c0 .599 0 1.198.598 1.796.599 1.796 1.796 2.395 2.993 3.592 3.593 2.993 7.783 5.388 11.375 8.38l5.388 3.592c-5.986.6-12.572 1.198-18.558 1.796-14.966-7.782-31.727-11.374-49.088-12.57-5.387-.6-5.986 7.781-1.197 8.979 8.98 2.394 17.958 4.789 26.34 7.183-8.381 1.197-16.163 2.993-23.347 4.789-6.584 1.796-3.591 11.374 2.994 10.177 9.578-1.198 20.354-2.395 31.128-3.592-6.584 7.183-13.768 13.768-22.15 17.36-7.183 3.592-.598 14.367 5.987 10.775 12.571-6.585 23.944-17.959 32.924-29.931 5.986-.599 11.374-.599 17.36-1.197-7.782 7.183-15.564 14.367-23.945 20.952-7.183 5.387.6 15.564 7.783 9.578 11.972-9.578 22.747-20.354 33.521-31.129C261.657 73.757 373 93.51 371.804 206.052c-1.796 141.275-204.73 108.95-301.706 107.154-.598-6.585-1.796-13.17-3.592-19.156s-11.973-5.388-11.374 1.197c-5.388-1.796-12.571 1.796-17.36 4.19-10.176 4.19-19.755 9.578-29.931 14.966-4.79 2.394-4.79 9.578 0 12.572 16.761 9.578 35.318 15.564 54.474 19.156 4.19.597 8.381-2.397 8.381-7.185z" data-original="#000000" class="active-path" data-old_color="#fec23b" fill="#fec23b"/></svg>