<svg xmlns="http://www.w3.org/2000/svg" width="512" height="512" viewBox="0 0 388.833 388.833"><path d="M43.152 371.124v-13.907c133.204 2.927 374.732 38.79 383.514-148.574 7.32-144.917-144.183-180.78-272.265-174.925-7.32-4.391-14.638-9.514-21.957-14.638-4.392-2.927-9.515-6.587-14.638-8.782-1.464-.732-2.927-1.464-5.124-1.464-.73 0-1.463 0-2.195.732-1.464 0-2.196.732-2.196 2.195v2.196c0 .732 0 1.464.732 2.196.732 2.195 2.196 2.927 3.66 4.391 4.392 3.66 9.514 6.587 13.907 10.247l6.587 4.391c-7.32.732-15.371 1.464-22.69 2.196-18.298-9.515-38.79-13.906-60.016-15.37-6.587-.732-7.319 9.515-1.464 10.978 10.979 2.928 21.956 5.856 32.204 8.783-10.247 1.464-19.761 3.66-28.544 5.855-8.05 2.196-4.391 13.906 3.66 12.443 11.711-1.464 24.885-2.928 38.058-4.392-8.05 8.783-16.834 16.834-27.08 21.225-8.783 4.392-.732 17.566 7.319 13.174 15.37-8.05 29.275-21.957 40.254-36.595 7.318-.731 13.906-.731 21.225-1.463-9.514 8.782-19.03 17.565-29.276 25.616-8.782 6.587.732 19.03 9.515 11.71 14.638-11.71 27.812-24.884 40.985-38.058 119.3-4.39 255.433 19.761 253.97 157.359C409.1 381.37 160.986 341.848 42.42 339.653c-.73-8.052-2.195-16.102-4.391-23.421s-14.638-6.587-13.906 1.463c-6.587-2.195-15.37 2.196-21.225 5.124-12.441 5.123-24.153 11.71-36.595 18.297-5.855 2.928-5.855 11.71 0 15.371 20.493 11.71 43.18 19.03 66.602 23.42 5.123.732 10.247-2.93 10.247-8.783z" data-original="#000000" class="active-path" data-old_color="#fec23b" fill="#fec23b"/></svg>